<svg width="66" height="66" viewBox="0 0 66 66" fill="none" xmlns="http://www.w3.org/2000/svg">
<path fill-rule="evenodd" clip-rule="evenodd" d="M21.3125 15.4496C21.3125 11.872 17.5476 9.54522 14.3478 11.1451L8.84779 13.8951C7.21737 14.7103 6.1875 16.3767 6.1875 18.1996V28.1874H5.5C4.36092 28.1874 3.4375 29.1108 3.4375 30.2499V46.7499C3.4375 52.4454 8.05456 57.0624 13.75 57.0624C19.4454 57.0624 24.0625 52.4454 24.0625 46.7499V30.2499C24.0625 29.1108 23.1391 28.1874 22 28.1874H21.3125V15.4496ZM7.5625 32.3124H19.9375V46.7499C19.9375 50.1673 17.1673 52.9374 13.75 52.9374C10.3327 52.9374 7.5625 50.1673 7.5625 46.7499V32.3124ZM17.1875 28.1874V15.4496C17.1875 14.9385 16.6497 14.6061 16.1925 14.8346L10.6925 17.5846C10.4596 17.7011 10.3125 17.9392 10.3125 18.1996V28.1874H17.1875Z" fill="#F7F4F3"/>
<path fill-rule="evenodd" clip-rule="evenodd" d="M45.375 11.6875C35.8825 11.6875 28.1875 19.3826 28.1875 28.8749C28.1875 37.6694 34.7924 44.9211 43.3125 45.94V52.9374H37.125C35.9859 52.9374 35.0625 53.8608 35.0625 54.9999C35.0625 56.1392 35.9859 57.0624 37.125 57.0624H53.625C54.764 57.0624 55.6875 56.1392 55.6875 54.9999C55.6875 53.8608 54.764 52.9374 53.625 52.9374H47.4375V45.94C55.9575 44.9211 62.5625 37.6694 62.5625 28.8749C62.5625 19.3826 54.8674 11.6875 45.375 11.6875ZM45.375 41.9374C52.5893 41.9374 58.4375 36.0892 58.4375 28.8749C58.4375 21.6608 52.5893 15.8125 45.375 15.8125C38.1606 15.8125 32.3125 21.6608 32.3125 28.8749C32.3125 36.0892 38.1606 41.9374 45.375 41.9374Z" fill="#F7F4F3"/>
</svg>
